<?xml version="1.0" encoding="UTF-8" standalone="no"?>
<svg
   xmlns:dc="http://purl.org/dc/elements/1.1/"
   xmlns:cc="http://creativecommons.org/ns#"
   xmlns:rdf="http://www.w3.org/1999/02/22-rdf-syntax-ns#"
   xmlns:svg="http://www.w3.org/2000/svg"
   xmlns="http://www.w3.org/2000/svg"
   xmlns:sodipodi="http://sodipodi.sourceforge.net/DTD/sodipodi-0.dtd"
   xmlns:inkscape="http://www.inkscape.org/namespaces/inkscape"
   fill="white"
   viewBox="0 0 512 512"
   version="1.1"
   id="svg845"
   sodipodi:docname="snowflake-solid.svg"
   inkscape:version="1.0.2 (e86c870879, 2021-01-15)">
  <metadata
     id="metadata851">
    <rdf:RDF>
      <cc:Work
         rdf:about="">
        <dc:format>image/svg+xml</dc:format>
        <dc:type
           rdf:resource="http://purl.org/dc/dcmitype/StillImage" />
      </cc:Work>
    </rdf:RDF>
  </metadata>
  <defs
     id="defs849" />
  <sodipodi:namedview
     pagecolor="#ffffff"
     bordercolor="#666666"
     borderopacity="1"
     objecttolerance="10"
     gridtolerance="10"
     guidetolerance="10"
     inkscape:pageopacity="0"
     inkscape:pageshadow="2"
     inkscape:window-width="1920"
     inkscape:window-height="1009"
     id="namedview847"
     showgrid="false"
     inkscape:zoom="1.4882812"
     inkscape:cx="256"
     inkscape:cy="256"
     inkscape:window-x="-8"
     inkscape:window-y="-8"
     inkscape:window-maximized="1"
     inkscape:current-layer="svg845" />
  <!--! Font Awesome Pro 6.2.1 by @fontawesome - https://fontawesome.com License - https://fontawesome.com/license (Commercial License) Copyright 2022 Fonticons, Inc. -->
  <path
     d="m 255.29997,0 c 17.7,0 32,14.3 32,32 v 30.1 l 15,-15 c 9.4,-9.4 24.6,-9.4 33.9,0 9.3,9.4 9.4,24.6 0,33.9 l -49,49 v 70.3 l 61.4,-35.8 17.7,-66.1 c 3.4,-12.8 16.6,-20.4 29.4,-17 12.8,3.4 20.4,16.6 17,29.4 l -5.2,19.3 23.6,-13.8 c 15.3,-8.9 34.9,-3.7 43.8,11.5 8.9,15.2 3.7,34.9 -11.5,43.8 l -25.3,14.8 21.7,5.8 c 12.8,3.4 20.4,16.6 17,29.4 -3.4,12.8 -16.6,20.4 -29.4,17 l -67.7,-18.1 -60.9,35.5 60.9,35.5 67.7,-18.1 c 12.8,-3.4 26,4.2 29.4,17 3.4,12.8 -4.2,26 -17,29.4 l -21.7,5.8 25.3,14.8 c 15.3,8.9 20.4,28.5 11.5,43.8 -8.9,15.3 -28.5,20.4 -43.8,11.5 l -23.6,-13.8 5.2,19.3 c 3.4,12.8 -4.2,26 -17,29.4 -12.8,3.4 -26,-4.2 -29.4,-17 l -17.7,-66.1 -61.3,-35.8 V 382 l 49,49 c 9.4,9.4 9.4,24.6 0,33.9 -9.4,9.3 -24.6,9.4 -33.9,0 l -15,-15 V 480 c 0,17.7 -14.3,32 -32,32 -17.7,0 -32,-14.3 -32,-32 v -30.1 l -15,15 c -9.4,9.4 -24.6,9.4 -33.9,0 -9.3,-9.4 -9.4,-24.6 0,-33.9 l 49,-49 v -70.3 l -61.4,35.8 -17.7,66.1 c -3.4,12.8 -16.6,20.4 -29.4,17 -12.8,-3.4 -20.400002,-16.6 -17.000002,-29.4 l 5.200002,-19.3 -23.800002,13.7 c -15.3,8.9 -34.9,3.7 -43.8,-11.5 -8.9,-15.2 -3.7,-34.9 11.5,-43.8 l 25.3,-14.8 -21.7,-5.8 c -12.8,-3.4 -20.4,-16.6 -17,-29.4 3.4,-12.8 16.6,-20.4 29.4,-17 l 67.700002,18.1 61,-35.4 -60.9,-35.5 -67.700002,18.1 c -12.8,3.4 -26,-4.2 -29.4,-17 -3.4,-12.8 4.2,-26 17,-29.4 l 21.7,-5.8 -25.3,-14.8 c -15.3,-8.9 -20.4,-28.5 -11.5,-43.7 8.9,-15.2 28.5,-20.4 43.8,-11.5 l 23.600002,13.8 -5.200002,-19.3 c -3.4,-12.8 4.200002,-26 17.000002,-29.4 12.8,-3.4 26,4.2 29.4,17 l 17.7,66.1 61.3,35.7 v -70.4 l -49,-48.9 c -9.4,-9.4 -9.4,-24.6 0,-33.9 9.4,-9.3 24.6,-9.4 33.9,0 l 15,15 V 32 c 0,-17.7 14.3,-32 32,-32 z"
     id="path843" />
</svg>
